<mxfile host="app.diagrams.net" modified="2022-05-19T23:20:09.940Z" agent="5.0 (Windows NT 10.0; Win64; x64) AppleWebKit/537.36 (KHTML, like Gecko) Chrome/101.0.4951.67 Safari/537.36" etag="cYu03lZNyVUMXUHH3lwE" version="17.4.6" type="github" pages="3">
  <diagram id="eAf6we7HFUDRdoNTurvY" name="geral">
    <mxGraphModel dx="782" dy="428" grid="1" gridSize="10" guides="1" tooltips="1" connect="1" arrows="1" fold="1" page="1" pageScale="1" pageWidth="827" pageHeight="1169" math="0" shadow="0">
      <root>
        <mxCell id="0" />
        <mxCell id="1" parent="0" />
        <mxCell id="HtoSLRo9wJaPpnQRnlQ6-1" value="Sensor de delimitação do espaço" style="rounded=0;whiteSpace=wrap;html=1;fontSize=14;fontFamily=Georgia;" parent="1" vertex="1">
          <mxGeometry x="182" y="80" width="120" height="60" as="geometry" />
        </mxCell>
        <mxCell id="HtoSLRo9wJaPpnQRnlQ6-3" value="Sensor de obstáculo" style="rounded=0;whiteSpace=wrap;html=1;fontSize=14;fontFamily=Georgia;" parent="1" vertex="1">
          <mxGeometry x="356" y="80" width="120" height="60" as="geometry" />
        </mxCell>
        <mxCell id="HtoSLRo9wJaPpnQRnlQ6-27" style="edgeStyle=orthogonalEdgeStyle;rounded=0;orthogonalLoop=1;jettySize=auto;html=1;exitX=1;exitY=0.5;exitDx=0;exitDy=0;entryX=0;entryY=0.5;entryDx=0;entryDy=0;fontFamily=Georgia;fontSize=14;strokeColor=#000000;strokeWidth=1;" parent="1" source="HtoSLRo9wJaPpnQRnlQ6-4" target="HtoSLRo9wJaPpnQRnlQ6-7" edge="1">
          <mxGeometry relative="1" as="geometry" />
        </mxCell>
        <mxCell id="HtoSLRo9wJaPpnQRnlQ6-30" style="edgeStyle=orthogonalEdgeStyle;rounded=0;orthogonalLoop=1;jettySize=auto;html=1;exitX=0;exitY=0.5;exitDx=0;exitDy=0;entryX=1;entryY=0.5;entryDx=0;entryDy=0;fontFamily=Georgia;fontSize=14;strokeColor=#000000;strokeWidth=1;" parent="1" source="HtoSLRo9wJaPpnQRnlQ6-4" target="HtoSLRo9wJaPpnQRnlQ6-6" edge="1">
          <mxGeometry relative="1" as="geometry" />
        </mxCell>
        <mxCell id="HtoSLRo9wJaPpnQRnlQ6-4" value="Controladores" style="rounded=0;whiteSpace=wrap;html=1;fontSize=14;fontFamily=Georgia;" parent="1" vertex="1">
          <mxGeometry x="279" y="190" width="120" height="60" as="geometry" />
        </mxCell>
        <mxCell id="HtoSLRo9wJaPpnQRnlQ6-32" style="edgeStyle=orthogonalEdgeStyle;rounded=0;orthogonalLoop=1;jettySize=auto;html=1;exitX=0.5;exitY=1;exitDx=0;exitDy=0;entryX=0.5;entryY=0;entryDx=0;entryDy=0;fontFamily=Georgia;fontSize=14;strokeColor=#000000;strokeWidth=1;" parent="1" source="HtoSLRo9wJaPpnQRnlQ6-5" target="HtoSLRo9wJaPpnQRnlQ6-12" edge="1">
          <mxGeometry relative="1" as="geometry" />
        </mxCell>
        <mxCell id="HtoSLRo9wJaPpnQRnlQ6-5" value="Ponte H" style="rounded=0;whiteSpace=wrap;html=1;fontSize=14;fontFamily=Georgia;" parent="1" vertex="1">
          <mxGeometry x="279" y="280" width="120" height="60" as="geometry" />
        </mxCell>
        <mxCell id="HtoSLRo9wJaPpnQRnlQ6-6" value="Comunicação de daos" style="rounded=0;whiteSpace=wrap;html=1;fontSize=14;fontFamily=Georgia;" parent="1" vertex="1">
          <mxGeometry x="85" y="190" width="120" height="60" as="geometry" />
        </mxCell>
        <mxCell id="HtoSLRo9wJaPpnQRnlQ6-7" value="Alimentação do controle" style="rounded=0;whiteSpace=wrap;html=1;fontSize=14;fontFamily=Georgia;" parent="1" vertex="1">
          <mxGeometry x="465" y="190" width="120" height="60" as="geometry" />
        </mxCell>
        <mxCell id="HtoSLRo9wJaPpnQRnlQ6-35" style="edgeStyle=orthogonalEdgeStyle;rounded=0;orthogonalLoop=1;jettySize=auto;html=1;exitX=0.5;exitY=1;exitDx=0;exitDy=0;fontFamily=Georgia;fontSize=14;strokeColor=#000000;strokeWidth=1;entryX=0;entryY=0.5;entryDx=0;entryDy=0;" parent="1" source="HtoSLRo9wJaPpnQRnlQ6-10" target="HtoSLRo9wJaPpnQRnlQ6-5" edge="1">
          <mxGeometry relative="1" as="geometry">
            <mxPoint x="190" y="310" as="targetPoint" />
            <Array as="points">
              <mxPoint x="525" y="590" />
              <mxPoint x="180" y="590" />
              <mxPoint x="180" y="310" />
            </Array>
          </mxGeometry>
        </mxCell>
        <mxCell id="HtoSLRo9wJaPpnQRnlQ6-10" value="Conversor" style="rounded=0;whiteSpace=wrap;html=1;fontSize=14;fontFamily=Georgia;" parent="1" vertex="1">
          <mxGeometry x="465" y="500" width="120" height="60" as="geometry" />
        </mxCell>
        <mxCell id="HtoSLRo9wJaPpnQRnlQ6-34" style="edgeStyle=orthogonalEdgeStyle;rounded=0;orthogonalLoop=1;jettySize=auto;html=1;exitX=0;exitY=0.5;exitDx=0;exitDy=0;entryX=1;entryY=0.5;entryDx=0;entryDy=0;fontFamily=Georgia;fontSize=14;strokeColor=#000000;strokeWidth=1;" parent="1" source="HtoSLRo9wJaPpnQRnlQ6-11" target="HtoSLRo9wJaPpnQRnlQ6-10" edge="1">
          <mxGeometry relative="1" as="geometry" />
        </mxCell>
        <mxCell id="HtoSLRo9wJaPpnQRnlQ6-11" value="Carregamento das baterias" style="rounded=0;whiteSpace=wrap;html=1;fontSize=14;fontFamily=Georgia;" parent="1" vertex="1">
          <mxGeometry x="650" y="500" width="120" height="60" as="geometry" />
        </mxCell>
        <mxCell id="HtoSLRo9wJaPpnQRnlQ6-12" value="Motores" style="rounded=0;whiteSpace=wrap;html=1;fontSize=14;fontFamily=Georgia;" parent="1" vertex="1">
          <mxGeometry x="279" y="380" width="120" height="60" as="geometry" />
        </mxCell>
        <mxCell id="HtoSLRo9wJaPpnQRnlQ6-33" style="edgeStyle=orthogonalEdgeStyle;rounded=0;orthogonalLoop=1;jettySize=auto;html=1;exitX=1;exitY=0.5;exitDx=0;exitDy=0;entryX=0;entryY=0.5;entryDx=0;entryDy=0;fontFamily=Georgia;fontSize=14;strokeColor=#000000;strokeWidth=1;" parent="1" source="HtoSLRo9wJaPpnQRnlQ6-13" target="HtoSLRo9wJaPpnQRnlQ6-10" edge="1">
          <mxGeometry relative="1" as="geometry" />
        </mxCell>
        <mxCell id="HtoSLRo9wJaPpnQRnlQ6-13" value="Alimentação de potência" style="rounded=0;whiteSpace=wrap;html=1;fontSize=14;fontFamily=Georgia;" parent="1" vertex="1">
          <mxGeometry x="265" y="500" width="120" height="60" as="geometry" />
        </mxCell>
        <mxCell id="HtoSLRo9wJaPpnQRnlQ6-24" value="" style="endArrow=classic;startArrow=classic;html=1;rounded=0;fontFamily=Georgia;fontSize=14;strokeColor=#000000;strokeWidth=1;entryX=0.5;entryY=1;entryDx=0;entryDy=0;exitX=0.5;exitY=0;exitDx=0;exitDy=0;" parent="1" source="HtoSLRo9wJaPpnQRnlQ6-4" target="HtoSLRo9wJaPpnQRnlQ6-1" edge="1">
          <mxGeometry width="50" height="50" relative="1" as="geometry">
            <mxPoint x="175" y="220" as="sourcePoint" />
            <mxPoint x="225" y="170" as="targetPoint" />
          </mxGeometry>
        </mxCell>
        <mxCell id="HtoSLRo9wJaPpnQRnlQ6-25" value="" style="endArrow=classic;startArrow=classic;html=1;rounded=0;fontFamily=Georgia;fontSize=14;strokeColor=#000000;strokeWidth=1;entryX=0.5;entryY=1;entryDx=0;entryDy=0;exitX=0.5;exitY=0;exitDx=0;exitDy=0;" parent="1" source="HtoSLRo9wJaPpnQRnlQ6-4" target="HtoSLRo9wJaPpnQRnlQ6-3" edge="1">
          <mxGeometry width="50" height="50" relative="1" as="geometry">
            <mxPoint x="305" y="410" as="sourcePoint" />
            <mxPoint x="355" y="360" as="targetPoint" />
          </mxGeometry>
        </mxCell>
        <mxCell id="HtoSLRo9wJaPpnQRnlQ6-28" value="" style="endArrow=classic;html=1;rounded=0;fontFamily=Georgia;fontSize=14;strokeColor=#000000;strokeWidth=1;entryX=0.5;entryY=1;entryDx=0;entryDy=0;exitX=0.5;exitY=0;exitDx=0;exitDy=0;" parent="1" source="HtoSLRo9wJaPpnQRnlQ6-10" target="HtoSLRo9wJaPpnQRnlQ6-7" edge="1">
          <mxGeometry width="50" height="50" relative="1" as="geometry">
            <mxPoint x="305" y="410" as="sourcePoint" />
            <mxPoint x="355" y="360" as="targetPoint" />
          </mxGeometry>
        </mxCell>
        <mxCell id="HtoSLRo9wJaPpnQRnlQ6-31" value="" style="endArrow=classic;startArrow=classic;html=1;rounded=0;fontFamily=Georgia;fontSize=14;strokeColor=#000000;strokeWidth=1;entryX=0.5;entryY=1;entryDx=0;entryDy=0;exitX=0.5;exitY=0;exitDx=0;exitDy=0;" parent="1" source="HtoSLRo9wJaPpnQRnlQ6-5" target="HtoSLRo9wJaPpnQRnlQ6-4" edge="1">
          <mxGeometry width="50" height="50" relative="1" as="geometry">
            <mxPoint x="315" y="410" as="sourcePoint" />
            <mxPoint x="365" y="360" as="targetPoint" />
          </mxGeometry>
        </mxCell>
      </root>
    </mxGraphModel>
  </diagram>
  <diagram name="especifico" id="z0aKSJ_pqMHbzz3HELGv">
    <mxGraphModel dx="2302" dy="832" grid="1" gridSize="10" guides="1" tooltips="1" connect="1" arrows="1" fold="1" page="1" pageScale="1" pageWidth="827" pageHeight="1169" math="0" shadow="0">
      <root>
        <mxCell id="2iu9K6nbXqO10WypyM0g-0" />
        <mxCell id="2iu9K6nbXqO10WypyM0g-1" parent="2iu9K6nbXqO10WypyM0g-0" />
        <mxCell id="2iu9K6nbXqO10WypyM0g-2" value="Sensor de delimitação do espaço" style="rounded=0;whiteSpace=wrap;html=1;fontSize=14;fontFamily=Georgia;" parent="2iu9K6nbXqO10WypyM0g-1" vertex="1">
          <mxGeometry x="182" y="80" width="120" height="60" as="geometry" />
        </mxCell>
        <mxCell id="2iu9K6nbXqO10WypyM0g-3" value="Sensor de obstáculo" style="rounded=0;whiteSpace=wrap;html=1;fontSize=14;fontFamily=Georgia;" parent="2iu9K6nbXqO10WypyM0g-1" vertex="1">
          <mxGeometry x="356" y="80" width="120" height="60" as="geometry" />
        </mxCell>
        <mxCell id="2iu9K6nbXqO10WypyM0g-4" style="edgeStyle=orthogonalEdgeStyle;rounded=0;orthogonalLoop=1;jettySize=auto;html=1;exitX=1;exitY=0.5;exitDx=0;exitDy=0;entryX=0;entryY=0.5;entryDx=0;entryDy=0;fontFamily=Georgia;fontSize=14;strokeColor=#000000;strokeWidth=1;" parent="2iu9K6nbXqO10WypyM0g-1" source="2iu9K6nbXqO10WypyM0g-6" target="2iu9K6nbXqO10WypyM0g-10" edge="1">
          <mxGeometry relative="1" as="geometry" />
        </mxCell>
        <mxCell id="2iu9K6nbXqO10WypyM0g-5" style="edgeStyle=orthogonalEdgeStyle;rounded=0;orthogonalLoop=1;jettySize=auto;html=1;exitX=0;exitY=0.5;exitDx=0;exitDy=0;entryX=1;entryY=0.5;entryDx=0;entryDy=0;fontFamily=Georgia;fontSize=14;strokeColor=#000000;strokeWidth=1;" parent="2iu9K6nbXqO10WypyM0g-1" source="2iu9K6nbXqO10WypyM0g-6" target="2iu9K6nbXqO10WypyM0g-9" edge="1">
          <mxGeometry relative="1" as="geometry" />
        </mxCell>
        <mxCell id="2iu9K6nbXqO10WypyM0g-6" value="Controladores" style="rounded=0;whiteSpace=wrap;html=1;fontSize=14;fontFamily=Georgia;" parent="2iu9K6nbXqO10WypyM0g-1" vertex="1">
          <mxGeometry x="279" y="190" width="120" height="60" as="geometry" />
        </mxCell>
        <mxCell id="2iu9K6nbXqO10WypyM0g-7" style="edgeStyle=orthogonalEdgeStyle;rounded=0;orthogonalLoop=1;jettySize=auto;html=1;exitX=0.5;exitY=1;exitDx=0;exitDy=0;entryX=0.5;entryY=0;entryDx=0;entryDy=0;fontFamily=Georgia;fontSize=14;strokeColor=#000000;strokeWidth=1;" parent="2iu9K6nbXqO10WypyM0g-1" source="2iu9K6nbXqO10WypyM0g-8" target="2iu9K6nbXqO10WypyM0g-15" edge="1">
          <mxGeometry relative="1" as="geometry" />
        </mxCell>
        <mxCell id="2iu9K6nbXqO10WypyM0g-8" value="Ponte H" style="rounded=0;whiteSpace=wrap;html=1;fontSize=14;fontFamily=Georgia;" parent="2iu9K6nbXqO10WypyM0g-1" vertex="1">
          <mxGeometry x="279" y="280" width="120" height="60" as="geometry" />
        </mxCell>
        <mxCell id="2iu9K6nbXqO10WypyM0g-9" value="Comunicação de daos" style="rounded=0;whiteSpace=wrap;html=1;fontSize=14;fontFamily=Georgia;" parent="2iu9K6nbXqO10WypyM0g-1" vertex="1">
          <mxGeometry x="85" y="190" width="120" height="60" as="geometry" />
        </mxCell>
        <mxCell id="2iu9K6nbXqO10WypyM0g-10" value="Alimentação do controle" style="rounded=0;whiteSpace=wrap;html=1;fontSize=14;fontFamily=Georgia;" parent="2iu9K6nbXqO10WypyM0g-1" vertex="1">
          <mxGeometry x="465" y="190" width="120" height="60" as="geometry" />
        </mxCell>
        <mxCell id="2iu9K6nbXqO10WypyM0g-11" style="edgeStyle=orthogonalEdgeStyle;rounded=0;orthogonalLoop=1;jettySize=auto;html=1;exitX=0.5;exitY=1;exitDx=0;exitDy=0;fontFamily=Georgia;fontSize=14;strokeColor=#000000;strokeWidth=1;entryX=0;entryY=0.5;entryDx=0;entryDy=0;" parent="2iu9K6nbXqO10WypyM0g-1" source="2iu9K6nbXqO10WypyM0g-12" target="2iu9K6nbXqO10WypyM0g-8" edge="1">
          <mxGeometry relative="1" as="geometry">
            <mxPoint x="190" y="310" as="targetPoint" />
            <Array as="points">
              <mxPoint x="525" y="590" />
              <mxPoint x="180" y="590" />
              <mxPoint x="180" y="310" />
            </Array>
          </mxGeometry>
        </mxCell>
        <mxCell id="2iu9K6nbXqO10WypyM0g-12" value="Conversor" style="rounded=0;whiteSpace=wrap;html=1;fontSize=14;fontFamily=Georgia;" parent="2iu9K6nbXqO10WypyM0g-1" vertex="1">
          <mxGeometry x="465" y="500" width="120" height="60" as="geometry" />
        </mxCell>
        <mxCell id="2iu9K6nbXqO10WypyM0g-13" style="edgeStyle=orthogonalEdgeStyle;rounded=0;orthogonalLoop=1;jettySize=auto;html=1;exitX=0;exitY=0.5;exitDx=0;exitDy=0;entryX=1;entryY=0.5;entryDx=0;entryDy=0;fontFamily=Georgia;fontSize=14;strokeColor=#000000;strokeWidth=1;" parent="2iu9K6nbXqO10WypyM0g-1" source="2iu9K6nbXqO10WypyM0g-14" target="2iu9K6nbXqO10WypyM0g-12" edge="1">
          <mxGeometry relative="1" as="geometry" />
        </mxCell>
        <mxCell id="2iu9K6nbXqO10WypyM0g-14" value="Carregamento das baterias" style="rounded=0;whiteSpace=wrap;html=1;fontSize=14;fontFamily=Georgia;" parent="2iu9K6nbXqO10WypyM0g-1" vertex="1">
          <mxGeometry x="650" y="500" width="120" height="60" as="geometry" />
        </mxCell>
        <mxCell id="2iu9K6nbXqO10WypyM0g-15" value="Motores" style="rounded=0;whiteSpace=wrap;html=1;fontSize=14;fontFamily=Georgia;" parent="2iu9K6nbXqO10WypyM0g-1" vertex="1">
          <mxGeometry x="279" y="380" width="120" height="60" as="geometry" />
        </mxCell>
        <mxCell id="2iu9K6nbXqO10WypyM0g-16" style="edgeStyle=orthogonalEdgeStyle;rounded=0;orthogonalLoop=1;jettySize=auto;html=1;exitX=1;exitY=0.5;exitDx=0;exitDy=0;entryX=0;entryY=0.5;entryDx=0;entryDy=0;fontFamily=Georgia;fontSize=14;strokeColor=#000000;strokeWidth=1;" parent="2iu9K6nbXqO10WypyM0g-1" source="2iu9K6nbXqO10WypyM0g-17" target="2iu9K6nbXqO10WypyM0g-12" edge="1">
          <mxGeometry relative="1" as="geometry" />
        </mxCell>
        <mxCell id="2iu9K6nbXqO10WypyM0g-17" value="Alimentação de potência" style="rounded=0;whiteSpace=wrap;html=1;fontSize=14;fontFamily=Georgia;" parent="2iu9K6nbXqO10WypyM0g-1" vertex="1">
          <mxGeometry x="265" y="500" width="120" height="60" as="geometry" />
        </mxCell>
        <mxCell id="2iu9K6nbXqO10WypyM0g-18" value="" style="endArrow=classic;startArrow=classic;html=1;rounded=0;fontFamily=Georgia;fontSize=14;strokeColor=#000000;strokeWidth=1;entryX=0.5;entryY=1;entryDx=0;entryDy=0;exitX=0.5;exitY=0;exitDx=0;exitDy=0;" parent="2iu9K6nbXqO10WypyM0g-1" source="2iu9K6nbXqO10WypyM0g-6" target="2iu9K6nbXqO10WypyM0g-2" edge="1">
          <mxGeometry width="50" height="50" relative="1" as="geometry">
            <mxPoint x="175" y="220" as="sourcePoint" />
            <mxPoint x="225" y="170" as="targetPoint" />
          </mxGeometry>
        </mxCell>
        <mxCell id="2iu9K6nbXqO10WypyM0g-19" value="" style="endArrow=classic;startArrow=classic;html=1;rounded=0;fontFamily=Georgia;fontSize=14;strokeColor=#000000;strokeWidth=1;entryX=0.5;entryY=1;entryDx=0;entryDy=0;exitX=0.5;exitY=0;exitDx=0;exitDy=0;" parent="2iu9K6nbXqO10WypyM0g-1" source="2iu9K6nbXqO10WypyM0g-6" target="2iu9K6nbXqO10WypyM0g-3" edge="1">
          <mxGeometry width="50" height="50" relative="1" as="geometry">
            <mxPoint x="305" y="410" as="sourcePoint" />
            <mxPoint x="355" y="360" as="targetPoint" />
          </mxGeometry>
        </mxCell>
        <mxCell id="2iu9K6nbXqO10WypyM0g-20" value="" style="endArrow=classic;html=1;rounded=0;fontFamily=Georgia;fontSize=14;strokeColor=#000000;strokeWidth=1;entryX=0.5;entryY=1;entryDx=0;entryDy=0;exitX=0.5;exitY=0;exitDx=0;exitDy=0;" parent="2iu9K6nbXqO10WypyM0g-1" source="2iu9K6nbXqO10WypyM0g-12" target="2iu9K6nbXqO10WypyM0g-10" edge="1">
          <mxGeometry width="50" height="50" relative="1" as="geometry">
            <mxPoint x="305" y="410" as="sourcePoint" />
            <mxPoint x="355" y="360" as="targetPoint" />
          </mxGeometry>
        </mxCell>
        <mxCell id="2iu9K6nbXqO10WypyM0g-21" value="" style="endArrow=classic;startArrow=classic;html=1;rounded=0;fontFamily=Georgia;fontSize=14;strokeColor=#000000;strokeWidth=1;entryX=0.5;entryY=1;entryDx=0;entryDy=0;exitX=0.5;exitY=0;exitDx=0;exitDy=0;" parent="2iu9K6nbXqO10WypyM0g-1" source="2iu9K6nbXqO10WypyM0g-8" target="2iu9K6nbXqO10WypyM0g-6" edge="1">
          <mxGeometry width="50" height="50" relative="1" as="geometry">
            <mxPoint x="315" y="410" as="sourcePoint" />
            <mxPoint x="365" y="360" as="targetPoint" />
          </mxGeometry>
        </mxCell>
      </root>
    </mxGraphModel>
  </diagram>
  <diagram id="MJ4ogWrNv-PK0gWAUcGQ" name="Conexão alimentação">
    <mxGraphModel dx="920" dy="504" grid="1" gridSize="10" guides="1" tooltips="1" connect="1" arrows="1" fold="1" page="1" pageScale="1" pageWidth="827" pageHeight="1169" math="0" shadow="0">
      <root>
        <mxCell id="0" />
        <mxCell id="1" parent="0" />
        <mxCell id="OpjQYGqRqh_CMc-7hOzx-15" style="edgeStyle=orthogonalEdgeStyle;rounded=0;orthogonalLoop=1;jettySize=auto;html=1;entryX=0.25;entryY=1;entryDx=0;entryDy=0;strokeColor=#3333FF;fillColor=#3333FF;exitX=0.25;exitY=0;exitDx=0;exitDy=0;" parent="1" source="OpjQYGqRqh_CMc-7hOzx-7" target="OpjQYGqRqh_CMc-7hOzx-1" edge="1">
          <mxGeometry relative="1" as="geometry">
            <mxPoint x="170" y="350" as="sourcePoint" />
          </mxGeometry>
        </mxCell>
        <mxCell id="-rjluttwTfY5IQeAJ49r-1" style="edgeStyle=orthogonalEdgeStyle;rounded=0;orthogonalLoop=1;jettySize=auto;html=1;exitX=0;exitY=0.5;exitDx=0;exitDy=0;entryX=0.5;entryY=1;entryDx=0;entryDy=0;fontSize=14;strokeColor=#000000;fillColor=#3333FF;" parent="1" source="OpjQYGqRqh_CMc-7hOzx-1" target="OpjQYGqRqh_CMc-7hOzx-2" edge="1">
          <mxGeometry relative="1" as="geometry" />
        </mxCell>
        <mxCell id="-rjluttwTfY5IQeAJ49r-2" style="edgeStyle=orthogonalEdgeStyle;rounded=0;orthogonalLoop=1;jettySize=auto;html=1;exitX=0.5;exitY=0;exitDx=0;exitDy=0;entryX=0.5;entryY=1;entryDx=0;entryDy=0;fontSize=14;strokeColor=#000000;fillColor=#000000;" parent="1" source="OpjQYGqRqh_CMc-7hOzx-1" target="OpjQYGqRqh_CMc-7hOzx-3" edge="1">
          <mxGeometry relative="1" as="geometry" />
        </mxCell>
        <mxCell id="OpjQYGqRqh_CMc-7hOzx-1" value="Módulo Ponte H&lt;br&gt;(L298N)" style="rounded=0;whiteSpace=wrap;html=1;" parent="1" vertex="1">
          <mxGeometry x="195" y="219" width="120" height="60" as="geometry" />
        </mxCell>
        <mxCell id="OpjQYGqRqh_CMc-7hOzx-2" value="Motor A (esquerdo)" style="rounded=0;whiteSpace=wrap;html=1;" parent="1" vertex="1">
          <mxGeometry x="60" y="109" width="120" height="60" as="geometry" />
        </mxCell>
        <mxCell id="OpjQYGqRqh_CMc-7hOzx-3" value="Motor B (direito)" style="rounded=0;whiteSpace=wrap;html=1;" parent="1" vertex="1">
          <mxGeometry x="195" y="109" width="120" height="60" as="geometry" />
        </mxCell>
        <mxCell id="OpjQYGqRqh_CMc-7hOzx-8" style="edgeStyle=orthogonalEdgeStyle;rounded=0;orthogonalLoop=1;jettySize=auto;html=1;exitX=0.5;exitY=0;exitDx=0;exitDy=0;entryX=0.5;entryY=1;entryDx=0;entryDy=0;" parent="1" source="OpjQYGqRqh_CMc-7hOzx-7" target="OpjQYGqRqh_CMc-7hOzx-1" edge="1">
          <mxGeometry relative="1" as="geometry" />
        </mxCell>
        <mxCell id="-rjluttwTfY5IQeAJ49r-9" style="edgeStyle=orthogonalEdgeStyle;rounded=0;orthogonalLoop=1;jettySize=auto;html=1;exitX=0.75;exitY=0;exitDx=0;exitDy=0;entryX=1;entryY=0.75;entryDx=0;entryDy=0;fontFamily=Helvetica;fontSize=11;strokeColor=#FF66B3;fillColor=#000000;" parent="1" source="OpjQYGqRqh_CMc-7hOzx-7" target="OpjQYGqRqh_CMc-7hOzx-1" edge="1">
          <mxGeometry relative="1" as="geometry" />
        </mxCell>
        <mxCell id="OpjQYGqRqh_CMc-7hOzx-7" value="Arduino" style="rounded=0;whiteSpace=wrap;html=1;" parent="1" vertex="1">
          <mxGeometry x="195" y="359" width="120" height="60" as="geometry" />
        </mxCell>
        <mxCell id="OpjQYGqRqh_CMc-7hOzx-11" style="edgeStyle=orthogonalEdgeStyle;rounded=0;orthogonalLoop=1;jettySize=auto;html=1;exitX=0;exitY=0.5;exitDx=0;exitDy=0;entryX=1;entryY=0.5;entryDx=0;entryDy=0;strokeColor=#3333FF;" parent="1" source="OpjQYGqRqh_CMc-7hOzx-10" target="OpjQYGqRqh_CMc-7hOzx-1" edge="1">
          <mxGeometry relative="1" as="geometry" />
        </mxCell>
        <mxCell id="OpjQYGqRqh_CMc-7hOzx-10" value="Tensão externa (4pilhas, 4.8V)" style="rounded=0;whiteSpace=wrap;html=1;strokeColor=#3333FF;" parent="1" vertex="1">
          <mxGeometry x="410" y="219" width="120" height="60" as="geometry" />
        </mxCell>
        <mxCell id="OpjQYGqRqh_CMc-7hOzx-12" value="Tensão e GND" style="text;html=1;align=center;verticalAlign=middle;resizable=0;points=[];autosize=1;strokeColor=none;fillColor=none;" parent="1" vertex="1">
          <mxGeometry x="320" y="229" width="90" height="20" as="geometry" />
        </mxCell>
        <mxCell id="OpjQYGqRqh_CMc-7hOzx-14" value="Tensão e GND" style="text;html=1;align=center;verticalAlign=middle;resizable=0;points=[];autosize=1;strokeColor=none;fillColor=none;" parent="1" vertex="1">
          <mxGeometry x="320" y="370" width="90" height="20" as="geometry" />
        </mxCell>
        <mxCell id="OpjQYGqRqh_CMc-7hOzx-16" value="Tensão PWM (se não &lt;br&gt;conectado com USB)" style="text;html=1;align=right;verticalAlign=middle;resizable=0;points=[];autosize=1;strokeColor=none;fillColor=none;" parent="1" vertex="1">
          <mxGeometry x="90" y="299" width="130" height="30" as="geometry" />
        </mxCell>
        <mxCell id="OpjQYGqRqh_CMc-7hOzx-19" style="edgeStyle=orthogonalEdgeStyle;rounded=0;orthogonalLoop=1;jettySize=auto;html=1;exitX=1;exitY=0.5;exitDx=0;exitDy=0;entryX=0.5;entryY=1;entryDx=0;entryDy=0;fillColor=#FF66B3;strokeColor=#FF66B3;" parent="1" source="OpjQYGqRqh_CMc-7hOzx-18" target="OpjQYGqRqh_CMc-7hOzx-7" edge="1">
          <mxGeometry relative="1" as="geometry" />
        </mxCell>
        <mxCell id="OpjQYGqRqh_CMc-7hOzx-18" value="Programação/teste" style="rounded=0;whiteSpace=wrap;html=1;strokeColor=#FF66B3;" parent="1" vertex="1">
          <mxGeometry x="60" y="449" width="120" height="60" as="geometry" />
        </mxCell>
        <mxCell id="OpjQYGqRqh_CMc-7hOzx-20" value="USB (somente se não &lt;br&gt;conectado à tensão da Ponte H)" style="text;html=1;align=left;verticalAlign=middle;resizable=0;points=[];autosize=1;strokeColor=none;fillColor=none;" parent="1" vertex="1">
          <mxGeometry x="260" y="449" width="190" height="30" as="geometry" />
        </mxCell>
        <mxCell id="OpjQYGqRqh_CMc-7hOzx-21" value="&lt;font style=&quot;font-size: 14px&quot;&gt;Caso 1: alimentação interna&lt;br&gt;&lt;br&gt;Caso 2: alimentação externa&lt;/font&gt;" style="text;html=1;align=left;verticalAlign=middle;resizable=0;points=[];autosize=1;strokeColor=none;fillColor=none;" parent="1" vertex="1">
          <mxGeometry x="59" y="535" width="190" height="50" as="geometry" />
        </mxCell>
        <mxCell id="OpjQYGqRqh_CMc-7hOzx-22" value="" style="ellipse;whiteSpace=wrap;html=1;aspect=fixed;fontSize=14;fillColor=#FF66B3;" parent="1" vertex="1">
          <mxGeometry x="30" y="532" width="20" height="20" as="geometry" />
        </mxCell>
        <mxCell id="OpjQYGqRqh_CMc-7hOzx-23" value="" style="ellipse;whiteSpace=wrap;html=1;aspect=fixed;fontSize=14;fillColor=#3333FF;strokeColor=#3333FF;" parent="1" vertex="1">
          <mxGeometry x="30" y="565" width="20" height="20" as="geometry" />
        </mxCell>
        <mxCell id="OpjQYGqRqh_CMc-7hOzx-25" value="&lt;font style=&quot;font-size: 14px&quot;&gt;Caso 1: &lt;span style=&quot;white-space: pre&quot;&gt; &lt;/span&gt;Ocorre quando utilizamos a alimentação do cabo USB, para fins de mudanças no código e testes.&lt;br&gt;&lt;span style=&quot;white-space: pre&quot;&gt; &lt;/span&gt;&lt;span style=&quot;white-space: pre&quot;&gt; &lt;/span&gt;Remover jumper do regulador de tensão.&amp;nbsp;&lt;br&gt;&lt;br&gt;Caso 2:&lt;span style=&quot;white-space: pre&quot;&gt; &lt;/span&gt;Ocorre quando utilizamos bateria/pilha.&lt;br&gt;&lt;span style=&quot;white-space: pre&quot;&gt; &lt;/span&gt;&lt;span style=&quot;white-space: pre&quot;&gt; &lt;/span&gt;Remover jumper do regulador de tensão.&lt;br&gt;&lt;/font&gt;" style="text;html=1;align=left;verticalAlign=middle;resizable=0;points=[];autosize=1;strokeColor=none;fillColor=none;fontSize=14;" parent="1" vertex="1">
          <mxGeometry x="30" y="620" width="690" height="90" as="geometry" />
        </mxCell>
        <mxCell id="-rjluttwTfY5IQeAJ49r-6" value="OUT1, OUT2" style="text;html=1;align=center;verticalAlign=middle;resizable=0;points=[];autosize=1;strokeColor=none;fillColor=none;fontSize=14;" parent="1" vertex="1">
          <mxGeometry x="20" y="190" width="100" height="20" as="geometry" />
        </mxCell>
        <mxCell id="-rjluttwTfY5IQeAJ49r-7" value="OUT3, OUT4" style="text;html=1;align=center;verticalAlign=middle;resizable=0;points=[];autosize=1;strokeColor=none;fillColor=none;fontSize=14;" parent="1" vertex="1">
          <mxGeometry x="254" y="190" width="100" height="20" as="geometry" />
        </mxCell>
        <mxCell id="-rjluttwTfY5IQeAJ49r-8" value="&lt;font face=&quot;Helvetica&quot; style=&quot;font-size: 12px&quot;&gt;Pinos PWM&lt;/font&gt;" style="text;html=1;align=center;verticalAlign=middle;resizable=0;points=[];autosize=1;strokeColor=none;fillColor=none;fontSize=11;fontFamily=Garamond;" parent="1" vertex="1">
          <mxGeometry x="255" y="290" width="80" height="20" as="geometry" />
        </mxCell>
        <mxCell id="-rjluttwTfY5IQeAJ49r-10" value="&lt;font style=&quot;font-size: 12px&quot;&gt;Tensão e GND&lt;/font&gt;" style="text;html=1;align=center;verticalAlign=middle;resizable=0;points=[];autosize=1;strokeColor=none;fillColor=none;fontSize=11;fontFamily=Helvetica;" parent="1" vertex="1">
          <mxGeometry x="290" y="329" width="90" height="20" as="geometry" />
        </mxCell>
        <mxCell id="-rjluttwTfY5IQeAJ49r-12" value="" style="shape=image;verticalLabelPosition=bottom;labelBackgroundColor=default;verticalAlign=top;aspect=fixed;imageAspect=0;image=https://blog.eletrogate.com/wp-content/uploads/2020/02/Screenshot_10-1.png;" parent="1" vertex="1">
          <mxGeometry x="591.46" y="38" width="180.2" height="70" as="geometry" />
        </mxCell>
        <mxCell id="-rjluttwTfY5IQeAJ49r-13" value="" style="shape=image;verticalLabelPosition=bottom;labelBackgroundColor=default;verticalAlign=top;aspect=fixed;imageAspect=0;image=https://blog.eletrogate.com/wp-content/uploads/2020/02/Screenshot_1-1-1.png;" parent="1" vertex="1">
          <mxGeometry x="590.46" y="118" width="186.06" height="72" as="geometry" />
        </mxCell>
        <mxCell id="ToiOcUc29m_MFqvFs34C-2" style="edgeStyle=orthogonalEdgeStyle;rounded=0;orthogonalLoop=1;jettySize=auto;html=1;exitX=0;exitY=0.5;exitDx=0;exitDy=0;entryX=1;entryY=0.5;entryDx=0;entryDy=0;strokeColor=#3333FF;" edge="1" parent="1" source="ToiOcUc29m_MFqvFs34C-1" target="OpjQYGqRqh_CMc-7hOzx-7">
          <mxGeometry relative="1" as="geometry" />
        </mxCell>
        <mxCell id="ToiOcUc29m_MFqvFs34C-1" value="Tensão externa (2 baterias, 7.4)" style="rounded=0;whiteSpace=wrap;html=1;strokeColor=#3333FF;" vertex="1" parent="1">
          <mxGeometry x="410" y="359" width="120" height="60" as="geometry" />
        </mxCell>
        <mxCell id="ToiOcUc29m_MFqvFs34C-6" style="edgeStyle=orthogonalEdgeStyle;rounded=0;orthogonalLoop=1;jettySize=auto;html=1;exitX=0;exitY=0.5;exitDx=0;exitDy=0;entryX=1;entryY=0.5;entryDx=0;entryDy=0;strokeColor=#3333FF;" edge="1" parent="1" source="ToiOcUc29m_MFqvFs34C-3" target="ToiOcUc29m_MFqvFs34C-1">
          <mxGeometry relative="1" as="geometry" />
        </mxCell>
        <mxCell id="ToiOcUc29m_MFqvFs34C-3" value="Carregador TP4056" style="rounded=0;whiteSpace=wrap;html=1;strokeColor=#3333FF;" vertex="1" parent="1">
          <mxGeometry x="621" y="359" width="120" height="60" as="geometry" />
        </mxCell>
        <mxCell id="ToiOcUc29m_MFqvFs34C-8" style="edgeStyle=orthogonalEdgeStyle;rounded=0;orthogonalLoop=1;jettySize=auto;html=1;exitX=0.5;exitY=0;exitDx=0;exitDy=0;strokeColor=#3333FF;" edge="1" parent="1" source="ToiOcUc29m_MFqvFs34C-4">
          <mxGeometry relative="1" as="geometry">
            <mxPoint x="670" y="429" as="targetPoint" />
          </mxGeometry>
        </mxCell>
        <mxCell id="ToiOcUc29m_MFqvFs34C-4" value="Conversor Buck" style="rounded=0;whiteSpace=wrap;html=1;strokeColor=#3333FF;" vertex="1" parent="1">
          <mxGeometry x="620" y="449" width="120" height="60" as="geometry" />
        </mxCell>
        <mxCell id="ToiOcUc29m_MFqvFs34C-7" style="edgeStyle=orthogonalEdgeStyle;rounded=0;orthogonalLoop=1;jettySize=auto;html=1;exitX=0.5;exitY=0;exitDx=0;exitDy=0;entryX=0.5;entryY=1;entryDx=0;entryDy=0;strokeColor=#3333FF;" edge="1" parent="1" source="ToiOcUc29m_MFqvFs34C-5" target="ToiOcUc29m_MFqvFs34C-4">
          <mxGeometry relative="1" as="geometry" />
        </mxCell>
        <mxCell id="ToiOcUc29m_MFqvFs34C-5" value="Painel solar" style="rounded=0;whiteSpace=wrap;html=1;strokeColor=#3333FF;" vertex="1" parent="1">
          <mxGeometry x="620" y="531" width="120" height="60" as="geometry" />
        </mxCell>
        <mxCell id="ToiOcUc29m_MFqvFs34C-9" value="" style="whiteSpace=wrap;html=1;aspect=fixed;dashed=1;fillColor=none;" vertex="1" parent="1">
          <mxGeometry x="560" y="349" width="246.97" height="246.97" as="geometry" />
        </mxCell>
        <mxCell id="ToiOcUc29m_MFqvFs34C-10" value="&lt;font style=&quot;font-size: 14px&quot;&gt;Modulo de carregamento das baterias de lítio&lt;/font&gt;" style="text;html=1;align=center;verticalAlign=middle;resizable=0;points=[];autosize=1;strokeColor=none;fillColor=none;" vertex="1" parent="1">
          <mxGeometry x="533.49" y="320" width="300" height="20" as="geometry" />
        </mxCell>
      </root>
    </mxGraphModel>
  </diagram>
</mxfile>
